<svg width="103" height="104" viewBox="0 0 103 104" fill="none" xmlns="http://www.w3.org/2000/svg">
<g clip-path="url(#clip0_89_3)">
<path d="M74.8126 0.42099C63.4337 0.42099 54.2114 11.8061 54.2114 24.656C54.2114 32.4765 57.889 39.3729 62.384 43.6667C66.3288 47.4387 68.7523 50.3432 69.2365 56.6455V98.2002C69.2365 101.083 71.5751 103.421 74.4575 103.421H75.1648C78.0472 103.421 80.3859 101.083 80.3859 98.2002V56.6453C80.8699 50.343 83.2934 47.4385 87.2384 43.6665C91.7334 39.3727 95.411 32.4763 95.411 24.6558C95.4106 11.8061 86.185 0.42099 74.8126 0.42099Z" fill="white"/>
<path d="M37.9384 5.35916V27.3623C37.9384 28.7673 36.8006 29.9084 35.3954 29.9084H34.7132C33.3112 29.9084 32.1702 28.7673 32.1702 27.3623V5.25857C32.1702 1.63426 29.731 0.546722 27.3891 0.546722C25.0505 0.546722 22.6113 1.63426 22.6113 5.25857V27.3623C22.6113 28.7673 21.4703 29.9084 20.0653 29.9084H19.3863C17.9813 29.9084 16.8433 28.7673 16.8433 27.3623V5.35916C16.8433 -1.13186 7.5894 -0.911774 7.5894 5.43138C7.5894 13.0256 7.5894 26.4414 7.5894 26.4414C7.54534 38.1093 10.3336 41.1364 14.9354 44.7732C18.6446 47.7028 21.8161 49.375 21.8161 56.6485V98.2C21.8161 101.082 24.1515 103.421 27.0371 103.421H27.7444C30.6268 103.421 32.9654 101.082 32.9654 98.2V56.6485C32.9654 49.375 36.1339 47.7026 39.8431 44.7732C44.4481 41.1364 47.2362 38.1093 47.1921 26.4414C47.1921 26.4414 47.1921 13.0256 47.1921 5.43138C47.1923 -0.911774 37.9384 -1.13186 37.9384 5.35916Z" fill="white"/>
</g>
<defs>
<clipPath id="clip0_89_3">
<rect width="103" height="103" fill="white" transform="translate(-7.62939e-06 0.42099)"/>
</clipPath>
</defs>
</svg>
